<svg xmlns="http://www.w3.org/2000/svg" xmlns:xlink="http://www.w3.org/1999/xlink" width="11.349" height="18.945" viewBox="0 0 11.349 18.945"><defs><style>.a,.c{fill:#fff;}.b{clip-path:url(#a);}.c{fill-rule:evenodd;}</style><clipPath id="a"><path class="a" d="M0-164.178H11.349v18.945H0Z" transform="translate(0 164.178)"/></clipPath></defs><g class="b"><g transform="translate(0 0)"><path class="c" d="M-35.406-.141c3.9-.246,7.8,1.972,6.462,6.37-.862,2.833-3.948,3.356-4.708,5.262-.372.934-.131,1.829-.831,2.123a1.727,1.727,0,0,1-1.292-.092c-1.03-.681-.028-3.2.646-4.062,1.224-1.568,3.629-2.29,3.97-3.97.664-3.276-3.256-3.892-5.724-3.231-.879.236-3.008,1.775-3.139-.185-.1-1.55,3.076-2.119,4.616-2.216" transform="translate(40.024 0.16)"/></g><g transform="translate(3.32 15.799)"><path class="c" d="M-11.37-.045c2.123-.161,2.034,3.094.092,3.139A1.571,1.571,0,0,1-11.37-.045" transform="translate(12.853 0.05)"/></g></g></svg>