<svg xmlns="http://www.w3.org/2000/svg" width="63.62" height="59.374" viewBox="0 0 63.62 59.374"><defs><style>.a{fill:#6b4e79;}</style></defs><path class="a" d="M60.945,54.572H61.5V52.451H60.1l-3.432-8.58a6.428,6.428,0,0,0,1.715-1.8c.03-.047.057-.094.086-.142a6.262,6.262,0,0,0,.308-.576c.024-.051.051-.1.073-.151a6.157,6.157,0,0,0,.264-.723c.019-.061.032-.124.049-.185.052-.2.1-.4.128-.6.013-.077.025-.151.035-.227a6.442,6.442,0,0,0,.056-.8,6.361,6.361,0,0,0-4.241-5.991V23.451a6.362,6.362,0,1,0-6.6-10.507L38.151,7.281c.01-.139.021-.278.021-.419a6.362,6.362,0,1,0-12.724,0c0,.141.012.28.021.419L15.077,12.95a6.362,6.362,0,1,0-6.6,10.5v9.225a6.361,6.361,0,0,0-4.241,5.991,6.291,6.291,0,0,0,2.72,5.189l-3.437,8.6h-1.4v2.121h.555L1.4,57.753H0v2.121H12.724V57.753H10.836l.636-3.181h1.251V52.451H11.9l1.632-8.159a6.389,6.389,0,0,0,1.538-1.115l10.057,5.486-.3,1.668h-1.5v2.12h1.12l-.947,5.3H21.207v2.121H42.413V57.753H40.12l-.947-5.3h1.12V50.33h-1.5l-.3-1.668,10.045-5.48c.141.14.289.275.442.4l.033.025a6.514,6.514,0,0,0,.7.491l.083.05c.1.056.192.112.291.163l1.628,8.139H50.9v2.121h1.25l.636,3.181H50.9v2.121H63.62V57.753h-1.4Zm-7.277-3.211-.684-3.419,2.564,1.538Zm4.145,1.09H55.577l1.6-1.6Zm-2.145-5.375-3.16-1.9-.053.087L52.4,45h.009c.2.019.406.031.612.031.172,0,.34-.013.509-.025h.07l.128-.012h.019a6.24,6.24,0,0,0,1-.2Zm1.59-8.409a4.242,4.242,0,0,1-.076.758c-.013.07-.029.14-.046.212a4.065,4.065,0,0,1-.173.557c-.021.055-.037.112-.061.166a4.237,4.237,0,0,1-.318.591c-.06.092-.127.178-.194.265s-.139.175-.212.259a4,4,0,0,1-.3.308c-.018.016-.037.029-.055.045a4.344,4.344,0,0,1-.949.636,4.436,4.436,0,0,1-.848.318h-.008a4.01,4.01,0,0,1-.683.1c-.077.006-.153.022-.231.023a3.993,3.993,0,0,1-.571-.041c-.1-.011-.194-.012-.289-.029a4.221,4.221,0,0,1-.818-.243c-.106-.042-.193-.1-.289-.143-.13-.065-.258-.13-.38-.206-.084-.054-.165-.112-.246-.171a4.244,4.244,0,0,1-.376-.311c-.057-.053-.116-.106-.17-.159a4.257,4.257,0,0,1-.824-1.224c-.027-.059-.048-.122-.071-.183a4.124,4.124,0,0,1-.171-.548c-.017-.07-.035-.14-.049-.212a4.239,4.239,0,1,1,8.407-.766ZM53.016,32.3a6.345,6.345,0,0,0-5.127,2.613L38.843,30.4a7.267,7.267,0,0,0-.141-5.071l9.152-4.159a6.35,6.35,0,0,0,5.162,2.656ZM30.544,35.363c.086.015.171.035.257.047.237.033.475.048.715.058l-2.137,1.424.31-1.719c.05.015.106.021.153.034A6.731,6.731,0,0,0,30.544,35.363Zm-1.7,4.548,4.693,2.015L27.986,44.7Zm6.556,3.45.978,5.482-6.323-2.81Zm-4.55-4.9,3.287-2.189.7,3.9Zm3.411-5.7a5.3,5.3,0,1,1,2.853-4.7,5.3,5.3,0,0,1-2.853,4.7ZM53.016,13.218a4.241,4.241,0,1,1-4.241,4.241A4.241,4.241,0,0,1,53.016,13.218ZM37.634,9.41,47.3,14.683a6.288,6.288,0,0,0-.383,4.578l-9.281,4.219a7.415,7.415,0,0,0-4.766-2.753v-7.6A6.379,6.379,0,0,0,37.634,9.41ZM31.81,2.615a4.241,4.241,0,1,1-4.241,4.241A4.241,4.241,0,0,1,31.81,2.615ZM30.75,13.123v7.6a7.416,7.416,0,0,0-4.772,2.757L16.7,19.262a6.288,6.288,0,0,0-.384-4.577l9.668-5.273A6.378,6.378,0,0,0,30.75,13.123ZM6.362,17.46A4.241,4.241,0,1,1,10.6,21.7,4.241,4.241,0,0,1,6.362,17.46ZM10.6,23.822a6.352,6.352,0,0,0,5.163-2.658l9.152,4.16a7.266,7.266,0,0,0-.141,5.071l-9.046,4.523A6.346,6.346,0,0,0,10.6,32.3V23.822ZM9.99,44.993a1.02,1.02,0,0,1,.171.01c.148.011.294.026.442.026.106,0,.2-.024.3-.029s.213.009.318,0l-.054.269-.053-.087-3.16,1.9.919-2.3c.031.008.063.01.094.018A6.15,6.15,0,0,0,9.99,44.993ZM8.072,49.482l2.564-1.537-.684,3.419ZM6.447,50.86l1.6,1.59H5.807Zm2.226,6.892H3.69l1.272-3.181H9.31ZM12.194,42.59a4.232,4.232,0,0,1-.848.247,4.011,4.011,0,0,1-.867.063,4.264,4.264,0,1,1,1.715-.31Zm4.135-1.146a6.351,6.351,0,0,0,.363-4.637l9.04-4.52a7.381,7.381,0,0,0,1.974,1.936L25.521,46.458ZM27.537,47.23l6.963,3.1H26.979Zm10.43,10.523H33.931V54.572H29.689v3.181H25.653l.947-5.3H37.019ZM35.919,34.226a7.374,7.374,0,0,0,1.973-1.936l9.041,4.52a6.352,6.352,0,0,0-.278,1.856,6.5,6.5,0,0,0,.063.849c.01.074.022.148.034.222a6.27,6.27,0,0,0,.168.735c.011.037.02.074.031.106a6.2,6.2,0,0,0,.276.7c.023.053.042.106.068.158L38.1,46.454ZM54.946,57.753l-.636-3.181h4.347l1.272,3.181Zm0,0" transform="translate(0 -0.5)"/></svg>