<svg xmlns="http://www.w3.org/2000/svg" width="63.62" height="63.619" viewBox="0 0 63.62 63.619"><defs><style>.a{fill:#6b4e79;}</style></defs><path class="a" d="M61.219,25.023,55.825,20.4a1.061,1.061,0,0,0-1.379,0l-5.395,4.623a6.655,6.655,0,0,0-.794.8l1.628,1.359a4.973,4.973,0,0,1,.546-.553l4.7-4.029,4.7,4.029a4.75,4.75,0,0,1-3.091,8.359H55.136v2.12H61.5v2.121H54.076v2.121H61.5v7.422H54.076v2.121H61.5v5.3H54.076v2.121H61.5V61.5H51.955V42.413a1.047,1.047,0,0,0-.89-1.025,6.857,6.857,0,0,0-.118-9.7q-.161-.157-.331-.3l-3.963-3.394v-.424a1.057,1.057,0,0,0-.07-.381l-5.231-13.6V9.707a3.293,3.293,0,0,0,.188-4.652c-.031-.034-.064-.068-.1-.1L39.231,2.742V0h-2.12V2.742L34.9,4.954a3.292,3.292,0,0,0-.01,4.656c.033.033.067.066.1.1v3.88L30.254,25.9a6.751,6.751,0,0,0-.849-.877L24.011,20.4a1.061,1.061,0,0,0-1.378,0l-5.391,4.622A6.827,6.827,0,0,0,15.9,26.585a6.838,6.838,0,0,0-1.339-1.562L9.171,20.4a1.061,1.061,0,0,0-1.379,0L2.4,25.023a6.857,6.857,0,0,0-.752,9.668q.132.154.272.3H1.06A1.06,1.06,0,0,0,0,36.05V62.558A1.06,1.06,0,0,0,1.06,63.619h61.5a1.06,1.06,0,0,0,1.06-1.061V36.05a1.06,1.06,0,0,0-1.06-1.06H61.7A6.856,6.856,0,0,0,61.52,25.3C61.422,25.2,61.322,25.111,61.219,25.023ZM36.779,14.844h2.784L42,21.18l-.53.53-2.453-3.26a1.1,1.1,0,0,0-1.546-.15,1.133,1.133,0,0,0-.151.15l-2.447,3.264-.53-.53Zm3.173,8.383-1.781,1.782-1.782-1.782,1.782-2.374Zm-3.281,3.28H32.292l1.213-3.163Zm6.165-3.163,1.213,3.163H39.67Zm-1.755,8.58,8.684,7.719a4.741,4.741,0,0,1-1.99,1.4l-8.45-7.511a4.72,4.72,0,0,1,.506-.54Zm8.753,11.547v5.3h-2.12V45.593H45.593v3.181H43.473V45.593H41.352v3.181H39.231v-5.3Zm-4.909-2.121h-2a4.713,4.713,0,0,1-4.6-5.874Zm-5.694,9.543h10.6v6.362h-10.6ZM50.895,36.6a4.715,4.715,0,0,1-.138,1.087L42.7,30.536l1.829-1.573,4.7,4.03A4.746,4.746,0,0,1,50.895,36.6ZM36.4,6.453,38.171,4.68l1.772,1.772A1.189,1.189,0,0,1,39.1,8.482H37.239a1.188,1.188,0,0,1-.84-2.029Zm2.7,4.15h.128v2.121H37.11V10.6ZM13.692,27.174l-8.45,7.511a4.745,4.745,0,0,1-1.989-1.4l8.683-7.719,1.25,1.071A4.671,4.671,0,0,1,13.692,27.174Zm-9.914-.539,4.7-4.032,1.829,1.573L2.258,31.329A4.664,4.664,0,0,1,3.777,26.634ZM10.6,42.321a3.263,3.263,0,0,1,1.178-2.514L15.9,36.368l4.123,3.437a3.272,3.272,0,0,1-2.094,5.788H13.875A3.275,3.275,0,0,1,10.6,42.321ZM11.663,61.5V47.714h8.482V61.5Zm10.6,0V46.654a1.054,1.054,0,0,0-.324-.76,5.352,5.352,0,0,0-.374-7.559c-.06-.054-.12-.106-.182-.157l-4.8-4a1.061,1.061,0,0,0-1.36,0l-4.8,4a5.352,5.352,0,0,0-.713,7.535c.051.061.1.122.157.181a1.055,1.055,0,0,0-.324.76V61.5H2.12V58.317h5.3V56.2H2.12v-5.3h5.3V48.774H2.12V41.352H6.362v-2.12H2.12V37.111H9.542V34.99H8.09L14.7,29.116a4.6,4.6,0,0,1-.03,2.407l2.043.573a6.9,6.9,0,0,0,.253-1.855,4.746,4.746,0,0,1,1.657-3.6l4.7-4.034,4.7,4.029a4.75,4.75,0,0,1-3.091,8.359H22.266v2.12h7.422v2.121H25.447v2.121h4.242v7.422h-5.3v2.121h5.3v5.3h-5.3v2.121h5.3V61.5H22.266Zm9.543,0V59.378H34.99V57.257H31.809v-4.24H34.99V50.9H31.809V48.774H34.99v-2.12H31.809v-.53a2.651,2.651,0,0,1,2.651-2.651,2.852,2.852,0,0,1,.378.027v-.027h.152V42.45l.152-1.049c-.05-.007-.106-.005-.152-.01v-.039H31.809v-.53A2.663,2.663,0,0,1,34.08,38.2l-.151-1.049v-1.1H31.809v-.53a2.651,2.651,0,0,1,2.651-2.65,2.714,2.714,0,0,1,.378.026l.3-2.1a4.753,4.753,0,0,0-3.333.759V28.628H41.67l-3.218,2.757a6.859,6.859,0,0,0-.749,9.672q.145.169.3.33a1.046,1.046,0,0,0-.893,1.026V61.5Zm7.422,0V59.378h10.6V61.5Zm0,0" transform="translate(0.001)"/><path class="a" d="M575.25,737.484h2.121V739.6H575.25Zm0,0" transform="translate(-533.897 -684.469)"/><path class="a" d="M634.25,737.484h2.121V739.6H634.25Zm0,0" transform="translate(-588.656 -684.469)"/><path class="a" d="M206.5,693.238h2.121v2.121H206.5Zm0,0" transform="translate(-191.659 -643.403)"/><path class="a" d="M206.5,752.238h2.121v2.12H206.5Zm0,0" transform="translate(-191.659 -698.162)"/></svg>