<svg xmlns="http://www.w3.org/2000/svg" width="40.293" height="63.62" viewBox="0 0 40.293 63.62"><defs><style>.a{fill:#6b4e79;}</style></defs><path class="a" d="M11.1,63.62h3.181V61.5h-1.71l.7-2.112a7.767,7.767,0,0,1,14.739,0l.7,2.112h-1.71V63.62H40.793V61.5H39.308L31.957,47.715h1.414V45.594H30.932l-3.47-9.543h1.668V33.931h-2.25l-2.9-22.267h1.973V9.543h-2.12V6.362A1.061,1.061,0,0,0,22.767,5.3H21.706V0h-2.12V5.3H18.526a1.061,1.061,0,0,0-1.061,1.061V9.543h-2.12v2.121h1.974l-2.9,22.267h-2.25v2.121h1.667l-3.47,9.543H7.923v2.121H9.336L1.984,61.5H.5V63.62Zm8.483-56.2h2.12V9.543h-2.12Zm-.13,4.242h2.379l2.9,22.267H16.552Zm-3.37,24.388h9.119l3.469,9.543H25.687l-1.9-6.654a1.061,1.061,0,0,0-1.019-.769H18.526a1.061,1.061,0,0,0-1.019.769l-1.9,6.654H12.617Zm7.395,9.543h-5.67l1.514-5.3h2.643ZM11.74,47.715H29.553L36.9,61.5H30.954l-.928-2.783a9.887,9.887,0,0,0-18.759,0L10.339,61.5H4.388Zm0,0" transform="translate(-0.5)"/></svg>