<svg xmlns="http://www.w3.org/2000/svg" width="80.678" height="80.458" viewBox="0 0 80.678 80.458"><g transform="translate(52.439 17.301)"><rect width="2.689" height="2.689" transform="translate(0 0.015) rotate(-0.309)"/></g><g transform="translate(0 0)"><path d="M79.334,43.466H60.242l1.613-24.112a1.358,1.358,0,0,0-.362-1.011,1.471,1.471,0,0,0-.983-.422l-2.689.015.013,2.689h1.245l-.321,4.809L54.86,27.6a14.844,14.844,0,0,1-13.176.579v-7.47l8.074-.042-.013-2.689-8.056.042V11.937L55.855,2.929,54.411.653,39.622,10.064A1.344,1.344,0,0,0,39,11.2v6.833l-18.816.1a1.345,1.345,0,0,0-1.337,1.352c0,.028,0,.055,0,.082L20.347,42a22.943,22.943,0,0,0-1.882,4.5A13.364,13.364,0,0,0,6.813,39.656,1.345,1.345,0,0,0,5.469,41a13.274,13.274,0,0,0,2.2,7.337A7.445,7.445,0,0,0,6.06,49.413l-.39.344A16.671,16.671,0,0,0,.548,66.518l.821,3.174a16.725,16.725,0,0,0,6.924,9.734,9.419,9.419,0,0,0,9.878.383l-.075-.134a32.68,32.68,0,0,0,7.736,1.307c.269.013.538.013.816.019v.11H44.378a36.268,36.268,0,0,0,36.3-36.236v-.065A1.345,1.345,0,0,0,79.334,43.466ZM59.729,46.888v-.733h13.39A28.839,28.839,0,0,1,56,71.151a28.518,28.518,0,0,1-7.822,2.193,30.855,30.855,0,0,0,5.3-5.984A36.412,36.412,0,0,0,59.729,46.888ZM39,20.721v6.5a17.519,17.519,0,0,0-13.131,1.537l-3.579,1.988-.661-9.937ZM24.4,40.7l.164-.212-1.717-1.324-.364-5.446,4.681-2.61a14.839,14.839,0,0,1,13.286-.538,17.523,17.523,0,0,0,15.7-.632l2.376-1.319-.6,9.04a4.486,4.486,0,0,0-.976-.571l-2.009-.838a3.811,3.811,0,0,0-3.311.175,3.891,3.891,0,0,0-1.968,2.766A35.482,35.482,0,0,1,37.521,60.329a16.646,16.646,0,0,0-5.528-10.574l-.39-.344a7.314,7.314,0,0,0-9.571-.134l-1.693,1.412A20.16,20.16,0,0,1,24.4,40.7ZM17.392,51.575a10.693,10.693,0,0,1-9.133-9.133A10.7,10.7,0,0,1,17.392,51.575ZM9.784,77.191a14.046,14.046,0,0,1-5.812-8.172l-.823-3.173A14,14,0,0,1,7.458,51.771h0l.39-.344a4.671,4.671,0,0,1,1.631-.9,13.31,13.31,0,0,0,9.353,3.832,1.322,1.322,0,0,0,.253-.051,3.647,3.647,0,0,0,2.085-.824l2.575-2.151a4.64,4.64,0,0,1,6.072.087l.39.344a13.975,13.975,0,0,1,4.738,10.507,35.51,35.51,0,0,1-17.725,6.339l-5.955.448A1.345,1.345,0,0,0,10.021,70.4v4.9a1.345,1.345,0,0,0,.672,1.16l.187.11a32.74,32.74,0,0,0,3.4,1.72A6.76,6.76,0,0,1,9.784,77.191ZM25.958,78.3h0a30.135,30.135,0,0,1-13.243-3.781V71.644l4.706-.355a38.327,38.327,0,0,0,34.9-31.635,1.21,1.21,0,0,1,.612-.867,1.121,1.121,0,0,1,.983-.052l2.009.839a1.806,1.806,0,0,1,1.115,1.673v5.647A33.746,33.746,0,0,1,51.24,65.86,28.563,28.563,0,0,1,25.958,78.3Zm18.419.126H40.093a30.919,30.919,0,0,0,4.285-2.257v.125a31.194,31.194,0,0,0,12.711-2.681A31.528,31.528,0,0,0,75.807,46.155h2.155A33.577,33.577,0,0,1,44.378,78.422Z" transform="translate(0 -0.653)"/></g><g transform="translate(61.855 48.191)"><rect width="2.689" height="2.689"/></g><g transform="translate(57.822 61.636)"><rect width="2.689" height="2.689"/></g><g transform="translate(61.855 56.258)"><rect width="2.689" height="2.689"/></g></svg>