<svg xmlns="http://www.w3.org/2000/svg" width="50.896" height="63.62" viewBox="0 0 50.896 63.62"><defs><style>.a{fill:#6b4e79;}</style></defs><path class="a" d="M339.75,147.5h2.121v3.181H339.75Zm0,0" transform="translate(-315.362 -136.897)"/><path class="a" d="M49.275,56.2a1.06,1.06,0,0,0,1.06-1.061V50.9a1.06,1.06,0,0,0-1.06-1.061H47.127a5.247,5.247,0,0,0,1.088-3.181,5.308,5.308,0,0,0-5.3-5.3H41.853V27.568a9.553,9.553,0,0,0-9.543-9.543H31.132a7.443,7.443,0,0,0,1.512-2.121h.726a1.061,1.061,0,0,0,1.06-1.061V8.482a1.06,1.06,0,0,0-1.06-1.06V5.3a3.18,3.18,0,0,0-2.488-3.1l-.148-.3A3.422,3.422,0,0,0,27.662,0H24.234A3.42,3.42,0,0,0,21.16,1.9l-.148.3a3.182,3.182,0,0,0-2.486,3.1V7.422a1.06,1.06,0,0,0-1.06,1.06v6.362a1.061,1.061,0,0,0,1.06,1.061h.727a7.438,7.438,0,0,0,1.512,2.121H19.586a9.553,9.553,0,0,0-9.543,9.543V41.353H8.983a5.308,5.308,0,0,0-5.3,5.3,5.247,5.247,0,0,0,1.088,3.181H2.621A1.06,1.06,0,0,0,1.561,50.9v4.24A1.06,1.06,0,0,0,2.621,56.2v5.3H.5V63.62H51.4V61.5H49.275Zm-1.061-2.121H30.189a4.2,4.2,0,0,0-.589-2.121H48.215ZM14.671,49.835a9.593,9.593,0,0,1-3.5-6.362h3.188a10.489,10.489,0,0,0,3.059,6.362Zm26.06-6.362a9.594,9.594,0,0,1-3.5,6.362H34.483a10.483,10.483,0,0,0,3.058-6.362Zm-14.782,0h5.415a6.573,6.573,0,0,1-4.855,2.121h-1.12a6.573,6.573,0,0,1-4.855-2.121Zm1.06-2.121V37.111h2.121v2.121H31.25V37.111H31.9a2.452,2.452,0,0,1,2.333,1.677l.848,2.564Zm0-6.513V30.75h3.18A4.24,4.24,0,0,1,27.009,34.84Zm-2.121,0a4.239,4.239,0,0,1-3.18-4.09h3.18Zm-2.121,4.392V37.111h2.121v4.241H16.817l.854-2.565A2.45,2.45,0,0,1,20,37.111h.647v2.121Zm-1.827,10.6-.5-.3a8.351,8.351,0,0,1-3.961-6.06h1.447a8.666,8.666,0,0,0,7.466,4.241h1.12a8.666,8.666,0,0,0,7.466-4.241h1.447a8.353,8.353,0,0,1-3.959,6.06l-.506.3Zm2.887,4.241A2.121,2.121,0,1,1,25.948,56.2,2.121,2.121,0,0,1,23.827,54.077Zm22.267-7.422a3.181,3.181,0,0,1-3.181,3.181H40.239a11.748,11.748,0,0,0,2.612-6.362h.063A3.181,3.181,0,0,1,46.094,46.654ZM34.431,20.464v7.92a9.038,9.038,0,0,1-.954,4.018l1.9.948a11.168,11.168,0,0,0,1.177-4.971V21.486a7.415,7.415,0,0,1,3.181,6.082V35.6a3.892,3.892,0,0,0-3.181-1.668v2.121a1.759,1.759,0,0,1,1.684,1.272l1.151,4.029H37.315l-1.082-3.234A4.568,4.568,0,0,0,31.9,34.991H30.677A6.329,6.329,0,0,0,32.31,30.75v-10.6A7.372,7.372,0,0,1,34.431,20.464ZM20.646,5.3a1.06,1.06,0,0,1,1.061-1.06,1.062,1.062,0,0,0,.949-.586l.4-.807a1.309,1.309,0,0,1,1.176-.727h3.427a1.308,1.308,0,0,1,1.175.727l.4.807a1.062,1.062,0,0,0,.949.586A1.06,1.06,0,0,1,31.25,5.3V6.362H27.009V5.3H24.888V6.362H20.646Zm0,7.423V8.482h10.6v4.241a5.3,5.3,0,1,1-10.6,0Zm9.543,7.423v8.483h-3.18V22.267H24.888v6.362h-3.18V20.146Zm-14.844,1.34v6.892a11.175,11.175,0,0,0,1.172,4.966l1.9-.948a9.041,9.041,0,0,1-.949-4.018V20.464a7.37,7.37,0,0,1,2.12-.318v10.6a6.329,6.329,0,0,0,1.633,4.241H20a4.567,4.567,0,0,0-4.336,3.127l-1.082,3.235H12.509l1.151-4.029a1.758,1.758,0,0,1,1.684-1.272V33.93A3.893,3.893,0,0,0,12.164,35.6v-8.03A7.416,7.416,0,0,1,15.345,21.486ZM5.8,46.654a3.181,3.181,0,0,1,3.181-3.181h.063a11.742,11.742,0,0,0,2.612,6.362H8.983A3.181,3.181,0,0,1,5.8,46.654Zm-2.121,5.3H22.3a4.2,4.2,0,0,0-.589,2.121H3.681Zm11.663,7.422V61.5H13.224V59.378H11.1V61.5H8.983V59.378H6.862V61.5H4.741V56.2H22.3a4.19,4.19,0,0,0,.256.394,3.169,3.169,0,0,0-1.32,1.364c-.017.034-.032.07-.045.106L19.909,61.5H17.465V59.378ZM22.171,61.5l.98-2.637a1.059,1.059,0,0,1,.926-.544h3.741a1.059,1.059,0,0,1,.927.544l.98,2.637Zm22.863,0V59.378H42.914V61.5H40.793V59.378H38.672V61.5H36.551V59.378h-2.12V61.5H31.992L30.72,58.06a.92.92,0,0,0-.046-.106,3.161,3.161,0,0,0-1.333-1.362A4.263,4.263,0,0,0,29.6,56.2H47.155v5.3Zm0,0" transform="translate(-0.5 0)"/></svg>