<svg xmlns="http://www.w3.org/2000/svg" width="63.62" height="54.077" viewBox="0 0 63.62 54.077"><defs><style>.a{fill:#6b4e79;}</style></defs><path class="a" d="M62.905,11.163,32.156.56a1.039,1.039,0,0,0-.691,0L.714,11.163a1.061,1.061,0,0,0-.714,1v3.181a1.06,1.06,0,0,0,1.061,1.06h1.06v2.121H0v2.121H2.121V48.216H1.061A1.06,1.06,0,0,0,0,49.277v4.241a1.06,1.06,0,0,0,1.061,1.06h61.5a1.06,1.06,0,0,0,1.06-1.06V49.277a1.06,1.06,0,0,0-1.06-1.061H61.5V20.648H63.62V18.527H61.5V16.406H62.56a1.06,1.06,0,0,0,1.06-1.06V12.165A1.061,1.061,0,0,0,62.905,11.163ZM12.724,20.648V43.975H8.483V20.648Zm10.6,0V43.975H19.086V20.648Zm10.6,0V43.975H29.689V20.648Zm10.6,0V43.975H40.293V20.648Zm10.6,0V43.975H50.9V20.648Zm2.121,21.207h2.121v2.121H57.258Zm2.121-2.121H57.258V20.648h2.121ZM46.654,41.854h2.121v2.121H46.654Zm2.121-2.121H46.654V20.648h2.121ZM36.051,41.854h2.121v2.121H36.051Zm2.121-2.121H36.051V20.648h2.121ZM25.448,41.854h2.121v2.121H25.448Zm2.121-2.121H25.448V20.648h2.121ZM14.845,41.854h2.121v2.121H14.845Zm2.121-2.121H14.845V20.648h2.121ZM4.241,41.854H6.362v2.121H4.241Zm2.121-2.121H4.241V20.648H6.362ZM61.5,52.457H2.121V50.337H61.5ZM4.241,48.216V46.1H59.378v2.121ZM59.378,18.527H4.241V16.406H59.378ZM61.5,14.286H2.121V12.921L31.81,2.684,61.5,12.921Zm0,0" transform="translate(0 -0.501)"/></svg>