<svg xmlns="http://www.w3.org/2000/svg" xmlns:xlink="http://www.w3.org/1999/xlink" width="26.79" height="26.79" viewBox="0 0 26.79 26.79"><defs><style>.a{fill:#fff;}.b{clip-path:url(#a);}</style><clipPath id="a"><path class="a" d="M0-393.488H26.79v26.79H0Z" transform="translate(0 393.488)"/></clipPath></defs><g class="b"><g transform="translate(0 0)"><path class="a" d="M-346.8-157.763h-10.072v-10.072a1.807,1.807,0,0,0-1.869-1.454,1.807,1.807,0,0,0-1.869,1.454v10.072h-10.072a1.806,1.806,0,0,0-1.454,1.869,1.807,1.807,0,0,0,1.454,1.869h10.072v10.072a1.807,1.807,0,0,0,1.869,1.454,1.807,1.807,0,0,0,1.869-1.454v-10.072H-346.8a1.807,1.807,0,0,0,1.454-1.869,1.807,1.807,0,0,0-1.454-1.869" transform="translate(372.133 169.289)"/></g></g></svg>