<svg xmlns="http://www.w3.org/2000/svg" width="81.226" height="80.668" viewBox="0 0 81.226 80.668"><g transform="translate(57.42 77.979)"><rect width="2.689" height="2.689"/></g><g transform="translate(48.172 57.179)"><rect width="2.689" height="19.851" transform="translate(0 1.275) rotate(-28.3)"/></g><g transform="translate(0 20.162)"><path d="M16.135,140.063l1.9-1.9-7.673-7.673v-4.265L16.135,132l1.9-1.9-8.067-8.067-.009.009a1.31,1.31,0,0,0-1.851-.049l-.042.041L0,130.1,1.9,132l5.773-5.773v4.265L0,138.161l1.9,1.9,5.772-5.772v4.265L0,146.228l1.9,1.9,5.772-5.772v4.265L0,154.3l1.9,1.9,5.772-5.772v31.711h2.689V150.424l5.772,5.772,1.9-1.9-7.673-7.673v-4.265l5.772,5.772,1.9-1.9-7.673-7.673v-4.265Z" transform="translate(0 -121.629)"/></g><g transform="translate(13.053 13.439)"><path d="M143.941,112.163l1.9-1.9-7.673-7.673V98.324l5.772,5.772,1.9-1.9-8.067-8.067-.009.009a1.31,1.31,0,0,0-1.851-.049l-.042.041-8.067,8.067,1.9,1.9,5.773-5.773v4.265l-7.673,7.673,1.9,1.9,5.772-5.772v4.265l-7.673,7.673,1.9,1.9,5.772-5.772v12.888l-2.823-5.952a1.344,1.344,0,0,0-1.21-.77H113.969v-10.2l5.772,5.772,1.9-1.9-7.673-7.673v-4.265l5.772,5.772,1.9-1.9-7.673-7.673V94.291l5.772,5.772,1.9-1.9-7.673-7.673V86.224L119.741,92l1.9-1.9-8.067-8.067-.009.009a1.31,1.31,0,0,0-1.851-.049l-.042.041L103.606,90.1l1.9,1.9,5.773-5.773v4.265l-7.673,7.673,1.9,1.9,5.772-5.772v4.265l-7.673,7.673,1.9,1.9,5.772-5.772v4.265l-7.673,7.673,1.9,1.9,5.772-5.772v10.2H92.457a1.327,1.327,0,0,0-.99.452,1.161,1.161,0,0,0-.2.269L77.823,146.889a1.344,1.344,0,0,0,1.19,1.968h40.334v-2.689H106.709L94.684,123.312H130.6l10.827,22.856H127.414v2.689h16.134a1.344,1.344,0,0,0,1.21-1.92l-6.588-13.917V114.458l5.772,5.772,1.9-1.9-7.673-7.673v-4.265ZM91.113,146.168H81.239l9.874-18.759Zm12.563,0H93.8V127.409Z" transform="translate(-77.669 -81.629)"/></g><g transform="translate(15.741 0)"><path d="M103.747,1.66a1.344,1.344,0,0,0-.951,2.3,7.835,7.835,0,0,1,2.53,4.8,4.136,4.136,0,0,1-4.571,4.571l0,0a7.835,7.835,0,0,1-4.8-2.53,1.344,1.344,0,0,0-2.3.951A10.084,10.084,0,1,0,103.747,1.66Zm6.659,13.307a7.394,7.394,0,0,1-13.309,0A8.859,8.859,0,0,0,100.559,16a6.925,6.925,0,0,0,5.484-1.96,7.481,7.481,0,0,0,.932-8.95A7.4,7.4,0,0,1,110.406,14.967Z" transform="translate(-93.664 -1.66)"/></g></svg>