<svg xmlns="http://www.w3.org/2000/svg" width="78.93" height="81.6" viewBox="0 0 78.93 81.6"><g transform="translate(10.756)"><path d="M81.351,0H75.973A4.033,4.033,0,0,0,71.94,4.033V9.411a5.378,5.378,0,0,0,10.756,0V1.344A1.345,1.345,0,0,0,81.351,0ZM80.007,5.378H75.973V8.067h4.033V9.411a2.689,2.689,0,0,1-5.378,0V4.033a1.345,1.345,0,0,1,1.344-1.344h4.033Z" transform="translate(-71.94)"/></g><g transform="translate(0)"><path d="M72.868,44.767,68.44,49.189l-5.772-5.772a1.635,1.635,0,0,0-.963-.394,1.344,1.344,0,0,0-.956.413l-4.41,4.579V9.411h1.344V6.722H56.34V0H53.651V6.722H52.307a1.345,1.345,0,0,0-.826.284L39.745,16.134H21.384a4,4,0,0,0-1.5.3A5.6,5.6,0,0,0,14.437,12.1h-.9a5.584,5.584,0,0,0-4.079,9.411,4.009,4.009,0,0,0-1.523,3.137V34.956a6.73,6.73,0,0,0,6.722,6.722H17.35V57.608L10.689,78.92a1.344,1.344,0,0,0,1.284,1.748H20.04V77.979H17.992l7.33-18.324a1.337,1.337,0,0,0,.082-.308l1.581-11.07,7.725,4.829-2.554,16.6a1.344,1.344,0,0,0,1.126,1.532,1.359,1.359,0,0,0,.2.015h.475l-8.165,8.48L27.73,81.6l9.961-10.343h3.86V68.568H40.28L53.651,54.684v4.473H52.307v2.689h1.344V63.19H56.34V61.845h1.344V59.157H56.34V51.9l5.4-5.6,5.753,5.753a1.344,1.344,0,0,0,1.9,0l5.378-5.378ZM34.829,18.823h5.378a1.345,1.345,0,0,0,.826-.284l9.1-7.077L42.223,20.25l-7.395,1.055ZM13.416,14.789h1.021a2.913,2.913,0,1,1,.125,5.826H13.541a2.913,2.913,0,0,1-.125-5.826Zm1.245,24.2a4.033,4.033,0,0,1-4.033-4.033V24.648A1.345,1.345,0,0,1,11.973,23.3h4.033a1.345,1.345,0,0,1,1.344,1.344V38.99Zm8.1,19.817L15.1,77.979H13.8l6.185-19.764a1.342,1.342,0,0,0,.054-.4V41.678h5.172Zm4.1-19.817h-6.83V20.167a1.345,1.345,0,0,1,1.344-1.344H32.14v2.846l-9.578,1.2.333,2.667,5.149-.643Zm9.616,29.578H35.052L37.5,52.639a1.344,1.344,0,0,0-.616-1.344L27.4,45.366l.51-3.563L41.342,50.35ZM53.651,50.806,40.309,64.669,44.194,50.1a1.344,1.344,0,0,0-.577-1.479l-14.1-8.974,1.257-15.086,2.88-.36.023-.007,9.411-1.344a1.345,1.345,0,0,0,.807-.432L53.651,11.57Z" transform="translate(-7.939)"/></g><g transform="translate(72.995 32.663)"><rect width="5.705" height="2.689" transform="translate(0 4.034) rotate(-45)"/></g><g transform="translate(67.62 39.375)"><rect width="3.802" height="2.689" transform="translate(0 2.689) rotate(-45)"/></g><g transform="translate(50.139 5.772)"><path d="M328.468,48.461l-3.755,3.755-6.166-6.166,2.8-2.8,2.411,2.411a1.344,1.344,0,0,0,1.9,0l9.411-9.411-1.9-1.9L324.713,42.8,322.3,40.394a1.344,1.344,0,0,0-1.9,0L306.284,54.511l1.9,1.9,8.461-8.461,7.116,7.116a1.344,1.344,0,0,0,1.9,0l3.755-3.755L332.5,54.4l1.9-1.9-4.033-4.033A1.344,1.344,0,0,0,328.468,48.461Z" transform="translate(-306.284 -34.344)"/></g></svg>