<svg xmlns="http://www.w3.org/2000/svg" width="53.016" height="63.62" viewBox="0 0 53.016 63.62"><defs><style>.a{fill:#6b4e79;}</style></defs><path class="a" d="M354.492,663.762h2.12v3.181h-2.12Zm0,0" transform="translate(-329.045 -616.046)"/><path class="a" d="M354.492,575.27h2.12v3.181h-2.12Zm0,0" transform="translate(-329.045 -533.916)"/><path class="a" d="M25.436,18.433a1.06,1.06,0,0,0,.017-1.5l-.017-.017L8.472.306a1.061,1.061,0,0,0-1.484,0L.818,6.347A1.061,1.061,0,0,0,.8,7.846l.016.016,16.964,16.61a1.061,1.061,0,0,0,1.485,0l2.342-2.294.742.722a8.586,8.586,0,0,0-1.8,3.281L20.315,27l-.274-.268a1.06,1.06,0,0,0-1.484,0L1.593,43.343a1.06,1.06,0,0,0-.017,1.5l.017.017L7.759,50.9a1.061,1.061,0,0,0,1.485,0l8.035-7.868L14.316,54.881a1.06,1.06,0,0,0,.772,1.285,1.047,1.047,0,0,0,.256.032H16.4v5.3H14.284V63.62H39.73V61.5H37.61V56.2h1.06a1.06,1.06,0,0,0,1.06-1.061,1.05,1.05,0,0,0-.031-.256l-2.961-11.85,8.8,8.624a1.061,1.061,0,0,0,1.485,0l6.17-6.044a1.061,1.061,0,0,0,.017-1.5L53.2,44.1,36.232,27.485a1.06,1.06,0,0,0-1.484,0l-.707.693-.571-2a8.6,8.6,0,0,0-1.8-3.273l.742-.722,2.333,2.289a1.061,1.061,0,0,0,1.484,0L53.2,7.863a1.06,1.06,0,0,0,.017-1.5L53.2,6.347,47.026.3a1.06,1.06,0,0,0-1.484,0L28.577,16.914a1.06,1.06,0,0,0-.017,1.5l.017.017,2.311,2.261-.8.786a8.574,8.574,0,0,0-2.823-1.3,1.031,1.031,0,0,0-.515,0,8.568,8.568,0,0,0-2.816,1.3l-.8-.785Zm10.053,3.8L33.92,20.695,49.369,5.568l1.569,1.54Zm-4.654-4.559L46.285,2.548l1.568,1.537L32.4,19.212Zm-8.251,9.089a6.47,6.47,0,0,1,1.277-2.371l1.63,1.59-2.707,2.651h-.733Zm4.422.7L28.2,28.631H25.817ZM19.3,28.974l.8.785.7.688.061.061L5.416,45.638,3.848,44.1ZM8.5,48.658,6.932,47.122,22.38,32l1.569,1.535-5.475,5.361ZM35.489,61.5H29.128V58.318H24.886V61.5H18.525V56.2H35.489Zm1.822-7.422H16.7L20.172,40.2l6.035-5.91a1.06,1.06,0,0,0,.017-1.5l-.017-.017-2.062-2.021h6.221l.53.515-2.31,2.262a1.059,1.059,0,0,0-.017,1.5l.017.017L33.849,40.2Zm8.973-4.665L35.543,38.894l-4.7-4.606,1.569-1.535L47.856,47.88Zm-10.8-19.683L50.938,44.853,49.369,46.39,33.92,31.266Zm-4.06-2.969.53,1.867h-.732l-2.7-2.648,1.629-1.59a6.476,6.476,0,0,1,1.277,2.374Zm-4.423-4.453a6.534,6.534,0,0,1,1.538.683l-1.509,1.477-.028.028L25.47,22.991A6.536,6.536,0,0,1,27.007,22.308ZM7.73,2.548,23.179,17.675l-1.569,1.536L6.161,4.084Zm10.8,19.683L3.076,7.108,4.645,5.572,20.094,20.695Zm0,0" transform="translate(-0.5)"/></svg>